<svg id="Layer_1" data-name="Layer 1" xmlns="http://www.w3.org/2000/svg" viewBox="0 0 25 25"><defs><style>.cls-1{fill:#056936;}.cls-2{fill:#fdfeff;}</style></defs><polygon class="cls-1" points="2.27 6.08 2.27 10.33 2.27 10.42 2.27 14.58 2.27 14.67 2.27 18.91 22.73 18.91 22.73 14.67 22.73 14.58 22.73 10.42 22.73 10.33 22.73 6.08 2.27 6.08"/><path class="cls-2" d="M8,9.9s0,0,0,0,.1.56.19.54,0,0,.1-.37.26-.33.26-.33a.94.94,0,0,1,.07.57s0,.17.1.15,0-.44,0-.46-.15-.55,0-.58.19,0,.2.38,0,.59.13.55S9,10.12,9,9.9,9,9.67,9,9.67s.13,0,.2.26,0,.32,0,.32a1.61,1.61,0,0,0,.18.17c.06,0,.16,0,.08-.2s-.22-.45-.1-.55.24.12.28.2,0,.13,0,.11.17.42,0,.64-.32.13-.32.13-.18-.18-.25-.12,0,.58,0,.58.06.45-.18.53l0-.77a.11.11,0,0,0-.11-.1c-.12,0-.23,0-.23-.2s0-.46,0-.46-.07-.17-.1,0,0,.56-.2.53S8,10.42,8,9.9Z"/><path class="cls-2" d="M8.22,9.38c-.07,0,0,.11,0,.21a.38.38,0,0,1,0,.24c0,.05.07,0,.1-.09S8.38,9.35,8.22,9.38Z"/><path class="cls-2" d="M9.09,9.42c.05,0,.06.1.09.1s0-.1.06-.1,0,.1.06.1,0-.11.08-.1.07.28-.14.27S9,9.42,9.09,9.42Z"/><path class="cls-2" d="M12.14,10.71s.06.1.09.1,0-.11.06-.11,0,.1.06.1,0-.1.08-.1.07.28-.14.27S12.09,10.71,12.14,10.71Z"/><path class="cls-2" d="M13.92,10.2c.05,0,.06.1.09.1s0-.1.06-.1,0,.09.06.09,0-.1.08-.09.07.28-.14.26S13.87,10.2,13.92,10.2Z"/><path class="cls-2" d="M8.73,11.37a.56.56,0,0,0-.12.55c.06.39.53.32.53.32a.8.8,0,0,0,.55-.43c.19-.37.08-.43.18-.44s0,.45,0,.47-.29.55-.7.53-.46-.08-.53-.27,0-.38-.07-.38-.12.3-.1.43a.52.52,0,0,0,.6.52,1.16,1.16,0,0,0,1-.7,1.38,1.38,0,0,0,0-.65s0-.05.1,0,.16-.08.3-.1.1.06.19,0a.24.24,0,0,0,.23-.26,1.83,1.83,0,0,0,0-.27.1.1,0,0,0-.1,0c0,.05,0,.19-.06.21s-.1-.15-.17-.16-.16.22-.26.23,0-.2-.11-.21-.09.11-.12.05S9.94,10,9.94,10h.16l-.17-.42s-.06-.16-.16-.12-.1.24-.09.27.16,1,.16,1,.06.24,0,.26-.14-.16-.27-.18-.4.08-.4.33.12.32.2.33.26-.15.28-.12-.15.49-.49.53-.38-.22-.39-.37S8.78,11.32,8.73,11.37Z"/><path class="cls-2" d="M10.15,10.26h.3l.47-.46-.14-.11s-.11-.07-.07-.11.12.08.12.08.06,0,.08-.05,0-.18-.16-.17-.17.13-.1.25l0,0,0,0Z"/><path class="cls-2" d="M10.69,10.2c.05,0,0,.16,0,.19s.17-.05.19,0-.11.22-.2.19a.16.16,0,0,1-.14-.18C10.55,10.3,10.58,10.25,10.69,10.2Z"/><path class="cls-2" d="M11,9.65s.1,0,.12.2,0,.42.14.41.16-.43.2-.51.13-.18.2-.18.12.35.11.51a.24.24,0,0,0,.2.27c.09,0,.22-.22.2-.39s-.1-.36-.07-.45.05-.2.12-.21.17.19.16.37-.06.67.18.65,0-.4-.07-.61a.24.24,0,0,1,.14-.33.45.45,0,0,1,.27.28c.05.18,0,.08-.08.08s0,0,0,.17,0,.23.1.26.14.06.18,0,.13-.08.1,0-.07.27-.16.29-.09-.08-.07-.13-.05,0-.09,0-.09.23-.29.23-.18-.21-.29-.2-.26.23-.4.24a.31.31,0,0,1-.3-.21c0-.1,0-.37,0-.39s-.11.5-.28.49-.31-.22-.33-.37A3.64,3.64,0,0,1,11,9.65Z"/><path class="cls-2" d="M11.39,9.3s-.05.12-.07.15-.05.05,0,.1.09,0,.11,0-.05.12-.11.11a.16.16,0,0,1-.11-.19C11.22,9.42,11.32,9.31,11.39,9.3Z"/><path class="cls-2" d="M11.87,9.5c0,.06,0,.22,0,.24s.1-.05.13-.16.08-.24,0-.25S11.87,9.5,11.87,9.5Z"/><path class="cls-2" d="M10.4,11.44c-.06,0,0,.13,0,.19s0,.24,0,.25a.21.21,0,0,0,.1-.17C10.58,11.61,10.54,11.45,10.4,11.44Z"/><path class="cls-2" d="M13.59,11.48s-.89,0-.89,0-.1,0-.09,0,.29-.07.4-.14.25-.19.25-.32-.08-.38-.28-.39-.33.19-.32.51a2.18,2.18,0,0,0-.45.13c-.08.07-.25.16-.27.25s0,0,0,0-.05-.35-.07-.44a2.62,2.62,0,0,0-.1-.3c0-.06-.08-.24-.17-.19s-.1.22,0,.44a1.5,1.5,0,0,1,.13.66,1,1,0,0,1-.24.41c-.11.1-.27.25-.36.26s-.27,0-.24-.13.31-.26.38-.35a.81.81,0,0,0,.19-.44.73.73,0,0,0-.1-.38s0-.05.06,0,.08,0,0-.07-.15-.31-.28-.24A.26.26,0,0,0,11,11c0,.09.2.18.19.32a.62.62,0,0,1-.3.42c-.18.13-.14.11-.14.11s.06-.24,0-.24a1.72,1.72,0,0,0-.16.31,3.68,3.68,0,0,1-.58.41s-.31.21-.29.25a1.62,1.62,0,0,0,.57-.14c.08-.05.24-.13.26-.11s.14.33.36.32a1.4,1.4,0,0,0,.68-.43c.07-.11.12-.18.16-.17a3.14,3.14,0,0,1,.33.32c.08.06.65.22.68.09s-.16-.21-.19-.24-.15-.05-.13-.12.16-.18.43-.19a1.26,1.26,0,0,0,.5-.1s0-.14.1-.2S13.61,11.49,13.59,11.48Zm-.73-.58c.08,0,.15.1.13.14s-.1,0-.13-.06S12.82,10.9,12.86,10.9Zm-.34.88c-.11.11-.2.12-.24.19s0,.22,0,.21-.13-.09-.2-.17a.42.42,0,0,1-.08-.33c0-.07.11,0,.27,0S12.57,11.74,12.52,11.78Z"/><path class="cls-2" d="M8.36,11.09a1.59,1.59,0,0,0-.34.35c0,.06.07,0,.17,0l.49-.23s.14,0,.13-.1S8.63,10.91,8.36,11.09Z"/><path class="cls-2" d="M8.06,11.83s0,.15,0,.25,0,.28,0,.3.15-.13.18-.09,0,.37-.15.35-.22-.18-.18-.33S8,11.85,8.06,11.83Z"/><path class="cls-2" d="M12.94,12.31s.12,0,.15,0,0,.11,0,.15.2,0,.26,0,.19-.05.17-.1-.09-.06-.13,0-.07.07-.12.07-.09,0-.07-.08a.14.14,0,0,0,0-.15S13,12.22,12.94,12.31Z"/><path class="cls-2" d="M13.39,9.66l-.23-.21S13,9.27,13,9.37A.43.43,0,0,0,13,9.8l.58.78v1.73a.33.33,0,0,0,.24-.25,5.54,5.54,0,0,0,0-1.09l.53,1,0-.43-.6-1L13.74,10s0-.06,0-.07.07.06.07,0a4.65,4.65,0,0,0-.25-.5s-.05-.14-.11-.1S13.45,9.72,13.39,9.66Z"/><path class="cls-2" d="M13.41,9.8s-.09,0,0,.07.11.14.1.07S13.43,9.79,13.41,9.8Z"/><path class="cls-2" d="M13.92,9.45c-.06,0,0,.11,0,.15s.13.14.12.22S14,10,14,10s.1-.09.11-.16a.42.42,0,0,0,0-.27C14,9.48,14,9.43,13.92,9.45Z"/><path class="cls-2" d="M14.39,9.41s.23.38.24.41.06.07,0,.11a.14.14,0,0,0-.09.13c0,.06.11.82.12,1s0,.8,0,.92a1.3,1.3,0,0,1-.31.57c-.15.15-.48.31-.59.08,0,0,0,0,.12-.1a4.76,4.76,0,0,0,.62-.5l-.06-.94s-.12-1-.12-1.07A1.68,1.68,0,0,1,14.39,9.41Z"/><path class="cls-2" d="M15,10s0-.09.09-.13,0-.09,0-.11-.22-.43-.25-.4a1.62,1.62,0,0,0-.05.57s.09.5.15,1,.08,1.22.08,1.22a.31.31,0,0,0,.18-.26c0-.2-.15-1.63-.15-1.63Z"/><path class="cls-2" d="M15.29,10.38s0,.14.06.26a.6.6,0,0,0,.26.22,1.8,1.8,0,0,0,0-.28c0-.09,0-.13.05-.12s.09,0,.1,0a.64.64,0,0,0-.06-.18s-.09-.11-.13,0,0,.18-.07.23S15.38,10.32,15.29,10.38Z"/><path class="cls-2" d="M15.86,10.86s-.44.31-.44.33-.05.07-.05.12.07.11.1.07a4.55,4.55,0,0,1,.43-.33.22.22,0,0,0,0-.08S15.91,10.82,15.86,10.86Z"/><path class="cls-2" d="M15.8,11.2c-.05,0,0,.17,0,.22a.58.58,0,0,1,.06.17.53.53,0,0,0,0,.18s.12,0,.12-.28S15.8,11.2,15.8,11.2Z"/><path class="cls-2" d="M16.72,9.71s-.07.13,0,.25.1.15.07.24a.23.23,0,0,0,0,.13s.12-.06.09-.31S16.77,9.7,16.72,9.71Z"/><path class="cls-2" d="M14.86,11.77s0,.35.05.42,0,.19.15.19.24-.3.27-.36.11-.31.19-.31.25.32.41.32.12-.24.13-.37S16,10.44,16,10.44l-.5-.66a1.63,1.63,0,0,1,0-.38,2.15,2.15,0,0,1,.35.31s0,0,0,0,0,0,0,.06l.1.08,0-.41s0-.09,0-.09a2.75,2.75,0,0,1,.33.48s0,.08-.05.07l-.07,0s0,.36,0,.36l.29.4-.18-1.16s0-.12.12-.12.17.21.21.34.08.2,0,.24-.07,0-.08,0,.14,1.1.14,1.1l.4.59,0,.39-.32-.49v.29a1.51,1.51,0,0,1-.2.27,6.06,6.06,0,0,1,0-1,1.86,1.86,0,0,0-.23-.32s0,.92,0,.92V12s-.09.37-.3.37-.3-.29-.44-.27-.17.65-.36.62a.5.5,0,0,1-.39-.35C14.75,12.23,14.74,11.77,14.86,11.77Z"/><path class="cls-2" d="M16.41,12.27s-.14,0-.14.06.1.09.1.11-.14.16-.1.2.14,0,.18-.05.14,0,.13-.08-.13,0-.13-.07.06-.11.06-.13S16.41,12.27,16.41,12.27Z"/><path class="cls-2" d="M17.15,12.07a1.46,1.46,0,0,1-.26.35c-.09,0-.39.17-.37.22s.39.09.57,0a.85.85,0,0,0,.25-.48s0-.77,0-.95-.09-1-.13-1.13,0-.12,0-.13.11,0,.1,0a3.67,3.67,0,0,0-.24-.38s-.05-.08-.07-.08-.08.1-.08.26.18,1.68.18,1.68A5.45,5.45,0,0,1,17.15,12.07Z"/><path class="cls-2" d="M16.06,15.29c-.06-.07-.23,0-.23,0h-.71l0-.11c0-.06,0-.08-.07-.1s0-.09-.08-.09-.08.09-.09.13.09.17.09.17l-5.75-.07a1,1,0,0,0,.67.34h5a1.06,1.06,0,0,0,0,.18s.07.19.16.19.05-.11.05-.11h.7s0,.1.14.11.23-.24.23-.32A.74.74,0,0,0,16.06,15.29Zm-.32.42h-.12s0-.06-.11-.06-.1.06-.1.06H15.2c-.11,0-.14-.13-.09-.13h.66s.08,0,.08.07S15.77,15.71,15.74,15.71Z"/></svg>