<svg id="Layer_1" data-name="Layer 1" xmlns="http://www.w3.org/2000/svg" viewBox="0 0 25 25"><defs><style>.cls-1{fill:#ef463a;}.cls-2{fill:#fff;}.cls-3{fill:#079a48;}</style></defs><rect class="cls-1" x="2.29" y="6.08" width="20.43" height="12.83"/><rect class="cls-2" x="2.29" y="8.68" width="20.43" height="7.63"/><path class="cls-3" d="M14.83,13.59c-.25-.12-.16-.37,0-.38s.63.24.67.16-.5-.59-.64-.66-.47-.08-.48-.18.83,0,.86-.12-.89-.35-.93-.43.76,0,.73-.05a10.89,10.89,0,0,0-1.41-1c-.13-.05,0-.28.21-.19s.51.19.52.11-.55-.3-.54-.38.32,0,.33-.08-.24-.26-.52-.39-.5,0-.75-.26a1.91,1.91,0,0,1-.4-.53,6.55,6.55,0,0,0-.79.79,1.55,1.55,0,0,0,.39.06s-.8.34-.77.42.32.08.32.15-.4.16-.39.22-.87.61-.86.69.54,0,.59.05a.45.45,0,0,1-.13.5c-.19.15-.57.19-.58.27s-.46.38-.4.43.55-.23.66-.16.22.2.21.3-.53.28-.75.47-.54.38-.51.45.46,0,.7-.11.45-.31.64-.27.13.27,0,.38a3.15,3.15,0,0,1-.9.29c-.17,0,0,.19.22.19a3.43,3.43,0,0,0,.94-.27c.24-.09.56-.13.67,0a.61.61,0,0,1-.11.71c-.21.17-.35.4-.58.41s-.52.36-.45.46.07-.23.32-.25a1.53,1.53,0,0,0,.79-.22.59.59,0,0,1,.49-.17c.08,0,.3-.11.44,0s.33.38.43.4,0-.25.22-.21.67.46.75.47,0-.28-.16-.4a2.12,2.12,0,0,1-.61-.54c-.14-.21,0-.83.19-.9s.37.23.75.17a1.64,1.64,0,0,1,1.05.08c.24.15.56.39.64.31S15.08,13.71,14.83,13.59Zm-3.54-2.27c0,.06.25.32.06.38s-.22-.14-.26-.24S11.17,11.32,11.29,11.32Zm.15,1.26c0,.09-.35.21-.44.22s-.25-.17-.26-.3,0-.1.15-.12a1.14,1.14,0,0,1,.37,0C11.33,12.4,11.48,12.47,11.44,12.58ZM14,11.73c.14,0,.18.28,0,.32s-.26,0-.29-.09S13.84,11.7,14,11.73Zm-1.14-1.3a.14.14,0,0,1,.23.11c0,.15-.13.19-.26.14S12.81,10.45,12.83,10.43Zm-.36.93c-.21,0,0-.26.12-.27h0a.24.24,0,0,1,.12,0A.21.21,0,0,1,12.47,11.36Zm-.07-.84c.1,0,.2-.06.24,0a.21.21,0,0,1-.07.21.46.46,0,0,1-.34.07C12.12,10.77,12.25,10.59,12.4,10.52Zm-.68-.12a.17.17,0,0,1,.21-.05.11.11,0,0,1,0,.19s-.16.08-.19.06S11.7,10.44,11.72,10.4Zm.3.31h0c.11-.06,0,.3,0,.35s-.29.07-.3-.05S11.94,10.79,12,10.71Zm-.22,2.67c-.07.31-.37-.08-.23-.28,0,0,.13,0,.18,0S11.81,13.3,11.8,13.38Zm-.21-1.84c-.06-.06,0-.25,0-.32h0c.15-.1.3.11.2.25S11.66,11.6,11.59,11.54Zm.27.5c.1-.16.38.19.22.23S11.78,12.16,11.86,12Zm.39,1.37c-.07.16-.26.06-.29-.07S12.37,13.17,12.25,13.41Zm-.05-1.35c0-.11.21-.25.29-.13s0,.22-.08.25S12.21,12.17,12.2,12.06Zm.46,1.33a.26.26,0,0,1-.26.15c0-.06-.05-.53.11-.42S12.73,13.21,12.66,13.39Zm.09-.92c-.06.07-.12,0-.17-.06a.33.33,0,0,1,0-.26l0-.07a.15.15,0,0,1,.2,0C12.86,12.17,12.8,12.42,12.75,12.47Zm0-1.14c0-.07.17-.19.23-.24s.1.24,0,.3S12.73,11.44,12.75,11.33Zm.34,1.07c0,.24-.29,0-.17-.19l0,0c0-.05.07,0,.1,0A.21.21,0,0,1,13.09,12.4Zm.14-2s0,0,.06,0c.23,0,.09.45-.17.27A2,2,0,0,1,13.23,10.45Zm0,1c-.13-.08,0-.23.11-.3a.5.5,0,0,1,.31.09.32.32,0,0,1,0,.27C13.49,11.63,13.27,11.55,13.19,11.49Zm.66,1.63c-.12,0-.29,0-.29-.14s.22-.24.35-.24.19,0,.19.17S14,13.1,13.85,13.12Zm.6.2c-.08,0-.24,0-.25-.13s.15-.23.3-.25.19,0,.19.13S14.56,13.3,14.45,13.32Z"/></svg>