<svg id="Layer_1" data-name="Layer 1" xmlns="http://www.w3.org/2000/svg" xmlns:xlink="http://www.w3.org/1999/xlink" viewBox="0 0 25 25"><defs><style>.cls-1{fill:none;}.cls-2{clip-path:url(#clip-path);}.cls-3{fill:#8e1c3e;}.cls-4{fill:#fff;}</style><clipPath id="clip-path"><polygon class="cls-1" points="22.73 10.3 22.71 10.3 22.71 6.08 7.34 6.08 2.27 6.08 2.27 10.3 2.27 12.56 2.27 14.62 2.27 18.9 2.27 18.91 22.71 18.91 22.71 14.62 22.73 14.62 22.73 10.3"/></clipPath></defs><g class="cls-2"><path class="cls-3" d="M.35,6.08H24.53V18.9H.35Z"/><path class="cls-4" d="M5.51,18.9H.35V6.08H5.51l2.33.72-2.33.71,2.33.71-2.33.71,2.33.71-2.33.72,2.33.71-2.33.71,2.33.71-2.33.71,2.33.71-2.33.72,2.33.71-2.33.71,2.33.71-2.33.71,2.33.71Z"/></g></svg>